<?xml version="1.0" standalone="no"?><!DOCTYPE svg PUBLIC "-//W3C//DTD SVG 1.1//EN" "http://www.w3.org/Graphics/SVG/1.1/DTD/svg11.dtd"><svg class="icon" width="200px" height="200.00px" viewBox="0 0 1024 1024" version="1.1" xmlns="http://www.w3.org/2000/svg"><path fill="#333333" d="M682.666667 522.666667l-362.666667-362.666667c-8.533333-8.533333-8.533333-21.333333 0-29.866667 8.533333-8.533333 21.333333-8.533333 29.866667 0l362.666666 362.666667c8.533333 8.533333 8.533333 21.333333 0 29.866667-6.4 6.4-21.333333 6.4-29.866666 0zM322.133333 853.333333l362.666667-362.666666c8.533333-8.533333 21.333333-8.533333 29.866667 0 8.533333 8.533333 8.533333 21.333333 0 29.866666l-362.666667 362.666667c-8.533333 8.533333-21.333333 8.533333-29.866667 0-8.533333-6.4-8.533333-21.333333 0-29.866667z" /></svg>