<?xml version="1.0" standalone="no"?><!DOCTYPE svg PUBLIC "-//W3C//DTD SVG 1.1//EN" "http://www.w3.org/Graphics/SVG/1.1/DTD/svg11.dtd"><svg class="icon" width="200px" height="163.71px" viewBox="0 0 1251 1024" version="1.1" xmlns="http://www.w3.org/2000/svg"><path d="M910.222222 282.168889m-62.577778 0a62.577778 62.577778 0 1 0 125.155556 0 62.577778 62.577778 0 1 0-125.155556 0Z" fill="#F9BBB8" /><path d="M1066.666667 558.648889l-192.853334 212.195555-347.591111-382.862222a56.888889 56.888889 0 0 0-85.333333 0L0 872.675556V910.222222a113.777778 113.777778 0 0 0 113.777778 113.777778h1024a113.777778 113.777778 0 0 0 113.777778-113.777778v-241.777778l-99.555556-109.795555a56.888889 56.888889 0 0 0-85.333333 0z" fill="#F55E55" /><path d="M1137.777778 0H113.777778a113.777778 113.777778 0 0 0-113.777778 113.777778v674.702222l398.222222-438.613333a118.328889 118.328889 0 0 1 170.666667 0l305.493333 336.213333L1024 520.533333a118.328889 118.328889 0 0 1 170.666667 0l56.888889 63.146667V113.777778a113.777778 113.777778 0 0 0-113.777778-113.777778z m-227.555556 398.222222a113.777778 113.777778 0 1 1 113.777778-113.777778 113.777778 113.777778 0 0 1-113.777778 113.777778z" fill="#F55E55" /></svg>