<svg xmlns="http://www.w3.org/2000/svg" viewBox="0 0 102.5 138.8"><g><g><path d="M67.2 10c.1.2.2.3.4.3h.2a.4.4 0 0 0 .1-.6L63 .2c-.1-.2-.3-.3-.5-.1a.4.4 0 0 0-.2.5zM65.8 12.7c.1.2.2.3.4.3h.1c.3-.1.3-.3.2-.6L60.2.2a.4.4 0 0 0-.6-.1c-.2.1-.3.3-.1.5zM64.4 15.4a.3.3 0 0 0 .3.3h.2a.4.4 0 0 0 .2-.5L57.4.2a.4.4 0 0 0-.6-.1.4.4 0 0 0-.2.5zM63 18.2c0 .1.2.2.3.2h.2a.4.4 0 0 0 .2-.5L54.5.2c-.1-.2-.3-.3-.5-.1a.4.4 0 0 0-.2.5zM61.5 20.9l.4.2h.2a.4.4 0 0 0 .2-.5L51.7.2c-.1-.2-.3-.3-.6-.1s-.2.3-.1.5zM60.1 23.6a.5.5 0 0 0 .4.2h.2a.4.4 0 0 0 .2-.5L48.9.2a.4.4 0 0 0-.6-.1.4.4 0 0 0-.2.5zM58.7 26.3a.5.5 0 0 0 .4.2h.2a.5.5 0 0 0 .2-.6L46.1.2c-.2-.2-.4-.3-.6-.1a.4.4 0 0 0-.2.5zM57.3 29l.4.2h.2a.4.4 0 0 0 .1-.6L43.2.2c-.1-.2-.3-.3-.5-.1a.4.4 0 0 0-.2.5zM55.9 31.7l.4.2h.2c.2-.1.2-.4.1-.6L40.4.2a.4.4 0 0 0-.6-.1c-.2.1-.3.3-.1.5zM54.5 34.4c0 .1.2.2.3.2h.2a.5.5 0 0 0 .2-.6L37.6.2a.4.4 0 0 0-.6-.1.4.4 0 0 0-.2.5zM53.1 37.1c0 .2.2.2.3.2h.2a.5.5 0 0 0 .2-.6L34.7.2c-.1-.2-.3-.3-.5-.1a.4.4 0 0 0-.2.5zM51.6 39.8a.4.4 0 0 0 .4.2h.2a.5.5 0 0 0 .2-.6L31.9.2a.4.4 0 0 0-.6-.1c-.2.1-.2.3-.1.5zM50.2 42.5c.1.2.2.3.4.3h.2a.5.5 0 0 0 .2-.6L29.1.2a.4.4 0 0 0-.6-.1.4.4 0 0 0-.2.5zM48.8 45.2c.1.2.2.3.4.3h.2a.4.4 0 0 0 .2-.6L26.3.2c-.2-.2-.4-.3-.6-.1a.4.4 0 0 0-.2.5zM47.4 47.9c.1.2.2.3.4.3h.2c.2-.1.2-.3.1-.6L23.4.2c-.1-.2-.3-.3-.5-.1a.4.4 0 0 0-.2.5zM46 50.6c.1.2.2.3.4.3h.2c.2-.1.2-.3.1-.5L20.6.2a.4.4 0 0 0-.6-.1.4.4 0 0 0-.2.5zM44.6 53.4c0 .1.2.2.3.2s.2 0 .2-.1a.4.4 0 0 0 .2-.5L17.8.2a.4.4 0 0 0-.6-.1.4.4 0 0 0-.2.5zM43.2 56.1c0 .1.2.2.3.2h.2a.4.4 0 0 0 .2-.5L14.9.2c-.1-.2-.3-.3-.5-.1a.4.4 0 0 0-.2.5zM41.7 58.8l.4.2h.2a.4.4 0 0 0 .2-.5L12.1.2a.4.4 0 0 0-.6-.1c-.2.1-.2.3-.1.5zM40.3 61.5l.4.2h.2a.5.5 0 0 0 .2-.6L9.3.2a.4.4 0 0 0-.6-.1.4.4 0 0 0-.2.5zM38.9 64.2l.4.2h.2a.5.5 0 0 0 .2-.6L6.4.2c-.1-.2-.3-.3-.5-.1a.4.4 0 0 0-.2.5zM37.5 66.9l.4.2h.2c.2-.1.2-.4.1-.6L3.6.2c-.1-.2-.3-.3-.5-.1s-.3.3-.2.5zM70 4.6a.4.4 0 0 0 .4.2h.2a.5.5 0 0 0 .2-.6l-2.1-4a.4.4 0 0 0-.6-.1.4.4 0 0 0-.2.5zM68.6 7.3c.1.2.2.2.4.2h.2a.5.5 0 0 0 .2-.6L65.9.2c-.2-.2-.4-.3-.6-.1a.4.4 0 0 0-.2.5zM67.8 128.6a.5.5 0 0 0-.6.2l-4.9 9.4a.5.5 0 0 0 .2.6h.2l.3-.2 4.9-9.4a.4.4 0 0 0-.1-.6zM66.3 125.9a.4.4 0 0 0-.5.2l-6.3 12.1a.4.4 0 0 0 .1.6h.2a.5.5 0 0 0 .4-.2l6.3-12.1a.4.4 0 0 0-.2-.6zM64.9 123.2a.4.4 0 0 0-.5.2l-7.8 14.8a.5.5 0 0 0 .2.6h.2l.4-.2 7.7-14.8a.5.5 0 0 0-.2-.6zM63.5 120.5a.4.4 0 0 0-.5.2l-9.2 17.5a.5.5 0 0 0 .2.6h.2l.3-.2 9.2-17.5a.4.4 0 0 0-.2-.6zM62.1 117.8c-.2-.1-.4-.1-.6.2L51 138.2c-.1.2-.1.5.1.6h.2a.5.5 0 0 0 .4-.2l10.6-20.3a.4.4 0 0 0-.2-.5zM60.7 115.1c-.2-.1-.5-.1-.6.1l-12 23a.5.5 0 0 0 .2.6h.2a.5.5 0 0 0 .4-.2l12-23a.4.4 0 0 0-.2-.5zM59.3 112.4c-.2-.1-.5-.1-.6.1l-13.4 25.7a.5.5 0 0 0 .2.6h.2l.4-.2 13.4-25.7a.4.4 0 0 0-.2-.5zM57.9 109.7a.4.4 0 0 0-.6.1l-14.8 28.4a.5.5 0 0 0 .2.6h.2l.3-.2L58 110.2c.2-.2.1-.4-.1-.5zM56.5 106.9a.5.5 0 0 0-.6.2l-16.2 31.1a.4.4 0 0 0 .1.6h.2a.5.5 0 0 0 .4-.2l16.2-31.1a.5.5 0 0 0-.1-.6zM55 104.2a.4.4 0 0 0-.5.2l-17.7 33.8a.5.5 0 0 0 .2.6h.2l.4-.2 17.6-33.8a.5.5 0 0 0-.2-.6zM53.6 101.5a.4.4 0 0 0-.5.2L34 138.2a.5.5 0 0 0 .2.6h.2l.3-.2 19.1-36.5a.5.5 0 0 0-.2-.6zM52.2 98.8c-.2-.1-.4 0-.6.2l-20.4 39.2c-.1.2-.1.5.1.6h.2a.5.5 0 0 0 .4-.2l20.5-39.2a.5.5 0 0 0-.2-.6zM50.8 96.1a.5.5 0 0 0-.6.2l-21.9 41.9a.5.5 0 0 0 .2.6h.2l.4-.2L51 96.7a.5.5 0 0 0-.2-.6zM49.4 93.4a.5.5 0 0 0-.6.2l-23.3 44.6a.5.5 0 0 0 .2.6h.2l.4-.2L49.6 94a.5.5 0 0 0-.2-.6zM48 90.7a.5.5 0 0 0-.6.2l-24.7 47.3a.5.5 0 0 0 .2.6h.2l.3-.2 24.7-47.3c.1-.2.1-.5-.1-.6zM46.6 88a.4.4 0 0 0-.6.2l-26.2 50a.5.5 0 0 0 .2.6h.2l.4-.2 26.1-50c.1-.3.1-.5-.1-.6zM45.1 85.3a.4.4 0 0 0-.5.2L17 138.2a.5.5 0 0 0 .2.6h.2l.4-.2 27.5-52.7a.4.4 0 0 0-.2-.6zM43.7 82.6c-.2-.1-.4-.1-.5.2l-29 55.4a.5.5 0 0 0 .2.6h.2l.3-.2 29-55.5a.4.4 0 0 0-.2-.5zM42.3 79.9c-.2-.1-.5-.1-.6.1l-30.3 58.2c-.1.2-.1.5.1.6h.2a.5.5 0 0 0 .4-.2l30.4-58.2a.4.4 0 0 0-.2-.5zM40.9 77.2a.4.4 0 0 0-.6.1L8.5 138.2a.5.5 0 0 0 .2.6h.2l.4-.2 31.8-60.9a.4.4 0 0 0-.2-.5zM39.5 74.5a.4.4 0 0 0-.6.1L5.7 138.2a.5.5 0 0 0 .2.6h.2l.3-.2L39.7 75a.4.4 0 0 0-.2-.5zM38.1 71.7a.5.5 0 0 0-.6.2L2.9 138.2a.4.4 0 0 0 .2.6h.1l.4-.2 34.6-66.3c.1-.2.1-.5-.1-.6zM36.8 69.6c.1-.1 0-.1 0-.2s.1-.1 0-.1L.8.2A.4.4 0 0 0 .2.1a.4.4 0 0 0-.2.5l36 68.8-36 68.8a.5.5 0 0 0 .2.6h.2l.4-.2 36-69zM70 134.2l-2.1 4a.5.5 0 0 0 .2.6h.2a.5.5 0 0 0 .4-.2l2.1-4a.4.4 0 1 0-.8-.4zM69.2 131.3a.5.5 0 0 0-.6.2l-3.5 6.7a.5.5 0 0 0 .2.6h.2l.4-.2 3.5-6.7a.5.5 0 0 0-.2-.6z" fill="#90699a"/><path d="M102.5.6a.6.6 0 0 0-.1-.4l-.3-.2H72.5l-.4.2-36 69c0 .1-.1.2 0 .3l36 69a.5.5 0 0 0 .4.2h29.6l.3-.2a.6.6 0 0 0 .1-.4l-36-68.8z" fill="#754d88"/></g></g></svg>